<?xml version="1.0" encoding="UTF-8"?>
<svg width="19px" height="10px" viewBox="0 0 19 10" version="1.1" xmlns="http://www.w3.org/2000/svg" xmlns:xlink="http://www.w3.org/1999/xlink">
    <!-- Generator: Sketch 49.3 (51167) - http://www.bohemiancoding.com/sketch -->
    <title>vk</title>
    <desc>Created with Sketch.</desc>
    <defs></defs>
    <g id="Page-1" stroke="none" stroke-width="1" fill="none" fill-rule="evenodd" opacity="0.7">
        <g id="Home" transform="translate(-35.000000, -693.000000)" fill="#FFFFFF" fill-rule="nonzero">
            <g id="Group-3">
                <g id="Social-Network" transform="translate(35.000000, 645.000000)">
                    <g id="vk" transform="translate(0.000000, 48.000000)">
                        <path d="M15.8112436,6.3584556 C16.3917405,6.93073867 17.004436,7.46917361 17.5250777,8.09916687 C17.7550686,8.37912516 17.9728124,8.66802448 18.1393832,8.99292009 C18.3754113,9.45477581 18.1616348,9.9630203 17.7515037,9.99059811 L15.2020554,9.98943694 C14.5445116,10.0445345 14.0199601,9.77723296 13.5788952,9.3232732 C13.2259167,8.96023313 12.8990423,8.57385352 12.5596333,8.19856309 C12.4204889,8.04517242 12.2748472,7.90083888 12.1008591,7.78675384 C11.7528255,7.55864182 11.4507326,7.62848625 11.251848,7.99500984 C11.0492836,8.36780375 11.0033429,8.7806 10.9834487,9.19606693 C10.9561373,9.80225619 10.7746745,9.96162689 10.1716386,9.98937888 C8.88288501,10.0507468 7.6597938,9.85387024 6.52358163,9.19740228 C5.52185659,8.61867472 4.74506258,7.80167489 4.06894705,6.87674423 C2.75253707,5.07571014 1.74442978,3.09666855 0.838380929,1.06218106 C0.634436565,0.603808856 0.783585615,0.357756747 1.28444813,0.349047966 C2.11615245,0.332733515 2.94774178,0.333894686 3.78042356,0.347886795 C4.11845258,0.352879829 4.34223365,0.548653239 4.47275344,0.871110392 C4.92273049,1.98833095 5.47332852,3.05126677 6.16445095,4.03652026 C6.34850111,4.29882876 6.53617362,4.56113726 6.80342296,4.74576343 C7.09907617,4.95018757 7.32417969,4.88243324 7.46326664,4.54987391 C7.55152562,4.33900527 7.59016408,4.11188025 7.61005828,3.88603252 C7.67595065,3.10903502 7.68463281,2.33337288 7.56906242,1.55910414 C7.49811025,1.07588288 7.228561,0.763063442 6.75104255,0.671621235 C6.50736727,0.625000224 6.54364833,0.533441901 6.66163362,0.392998283 C6.86655544,0.150778038 7.05928776,0 7.44348743,0 L10.324755,0 C10.7783544,0.0903971528 10.8790904,0.296156632 10.9411879,0.757025353 L10.9436603,3.98873808 C10.9387155,4.16715198 11.0319193,4.69658785 11.3501691,4.81467892 C11.6048839,4.8987477 11.7727772,4.69298822 11.9256061,4.52990177 C12.6154636,3.79058427 13.1078165,2.91686124 13.5476739,2.01213495 C13.7428786,1.61431781 13.9107144,1.20117321 14.0733754,0.788376967 C14.1938906,0.48206009 14.3830006,0.33134011 14.7247095,0.338016842 L17.4977663,0.34051336 C17.579988,0.34051336 17.6631872,0.341732589 17.7428216,0.355492464 C18.2101054,0.435903547 18.3381528,0.638876216 18.1938336,1.09962882 C17.9664301,1.82251575 17.5239853,2.4249312 17.0913725,3.03013346 C16.6289185,3.676267 16.1343232,4.30028023 15.6757215,4.95024562 C15.2543783,5.54377812 15.287842,5.84295379 15.8112436,6.3584556 Z" id="XMLID_807_"></path>
                    </g>
                </g>
            </g>
        </g>
    </g>
</svg>