<?xml version="1.0" encoding="UTF-8"?>
<svg width="20px" height="26px" viewBox="0 0 20 26" version="1.1" xmlns="http://www.w3.org/2000/svg" xmlns:xlink="http://www.w3.org/1999/xlink">
    <!-- Generator: Sketch 49.3 (51167) - http://www.bohemiancoding.com/sketch -->
    <title>Group</title>
    <desc>Created with Sketch.</desc>
    <defs>
        <polygon id="path-1" points="0 0 20 0 20 26 0 26"></polygon>
    </defs>
    <g id="Page-1" stroke="none" stroke-width="1" fill="none" fill-rule="evenodd">
        <g id="Mobile-places" transform="translate(-177.000000, -656.000000)">
            <g id="Group" transform="translate(177.000000, 656.000000)">
                <mask id="mask-2" fill="white">
                    <use xlink:href="#path-1"></use>
                </mask>
                <g id="Clip-2"></g>
                <path d="M11.6666667,8.12497461 C11.6666667,7.22712002 10.9204167,6.49989843 10,6.49989843 C9.07958333,6.49989843 8.33333333,7.22712002 8.33333333,8.12497461 C8.33333333,9.02242293 9.07958333,9.74964451 10,9.74964451 C10.9204167,9.74964451 11.6666667,9.02242293 11.6666667,8.12497461 M6.66625,8.12213072 C6.66625,6.32764036 8.15875,4.87197837 9.99958333,4.87197837 C11.8404167,4.87197837 13.3329167,6.32764036 13.3329167,8.12213072 C13.3329167,9.9178399 11.8404167,11.3718768 9.99958333,11.3718768 C8.15875,11.3718768 6.66625,9.9178399 6.66625,8.12213072 M10,1.62507618 C5.40458333,1.62507618 1.66666667,5.27012204 1.66666667,9.74964451 C1.66666667,12.847446 6.36,19.3103739 10,23.5213526 C13.6395833,19.3103739 18.3333333,12.847446 18.3333333,9.74964451 C18.3333333,5.27012204 14.595,1.62507618 10,1.62507618 M0,9.74964451 C0,4.36454834 4.47708333,0 10,0 C15.5225,0 20,4.36454834 20,9.74964451 C20,15.1343344 10,26 10,26 C10,26 0,15.1343344 0,9.74964451" id="Fill-1" fill="#B47F63" mask="url(#mask-2)"></path>
            </g>
        </g>
    </g>
</svg>